<?xml version="1.0" encoding="utf-8"?>
<!-- Generator: Adobe Illustrator 23.1.1, SVG Export Plug-In . SVG Version: 6.00 Build 0)  -->
<svg version="1.1" id="tomroberts101.com" xmlns="http://www.w3.org/2000/svg" xmlns:xlink="http://www.w3.org/1999/xlink" x="0px"
	 y="0px" viewBox="0 0 1368.8066406 1368.8066406" style="enable-background:new 0 0 1368.8066406 1368.8066406;"
	 xml:space="preserve">
<style type="text/css">
	.st0{fill:#E43B3A;}
	.st1{fill:#FDEB01;}
	.st2{stroke:#000000;stroke-miterlimit:10;}
</style>
<g>
	<path class="st0" d="M118.3074799,591.0068359c11.4355469,1.3945312,11.5751953,1.5727539,11.3623047,3.3198242
		l-4.5507812,37.324707c-0.3095703,2.5410156-0.3212891,5.2797852-1.409668,6.2753906
		c-1.2666016,1.1352539-3.6103516,0.5273438-5.5161133,0.2949219L16.2249584,625.7905273
		c-2.2236319-0.2714844-3.1767569-0.3876953-1.8212881-11.5053711c1.4716797-12.0712891,2.025878-12.6484375,4.725585-12.3193359
		l79.5732422,9.7011719c2.0649414,0.2519531,5.0825195,0.6196289,5.6557617-0.1162109
		c0.5737305-0.7363281,1.003418-2.9404297,1.2163086-4.6875l1.8398438-15.0888672
		C107.646347,589.8686523,107.9837494,589.7485352,118.3074799,591.0068359z"/>
	<path class="st0" d="M129.9334564,537.0708008c11.2519531,2.4697266,11.3740234,2.6601562,10.996582,4.3793945
		l-8.0610352,36.7260742c-0.5488281,2.5004883-0.8193359,5.2255859-1.9970703,6.1137695
		c-1.3681641,1.0102539-3.644043,0.1831055-5.519043-0.2285156l-98.7695312-21.6787109
		c-2.0317383-0.4458008-2.1538086-0.6367188-3.1977539-1.8486328c-1.0449219-1.2119141-0.8046875-2.3061523-0.4614258-3.8686523
		l8.5410156-38.9140625c0.4116211-1.8754883,0.880373-1.7724609,10.4135761,0.3198242
		c11.2519531,2.4697266,11.8774414,2.6069336,11.4316406,4.6386719l-3.4306641,15.6279297
		c-0.2744141,1.2504883-0.5292969,3.1601562-0.0073242,3.7661133c0.9223633,1.0214844,0.7661133,0.9873047,2.7978516,1.4331055
		l11.4086914,2.5039062c1.40625,0.309082,3.0566406,0.9985352,4.269043-0.0454102
		c1.0214844-0.9228516,1.1049805-2.0507812,1.3793945-3.3012695l1.6811523-7.6577148
		c0.4116211-1.8754883,1.0024414-1.5820312,11.4731445,0.7163086c10.0019531,2.1953125,10.6958008,2.0200195,10.2495117,4.0517578
		l-1.543457,7.0327148c-0.3427734,1.5625-0.5639648,3.315918-0.3886719,4.0097656
		c0.6289062,1.6123047,2.2602539,1.6425781,4.2919922,2.0888672l12.9711914,2.8466797
		c2.0317383,0.4462891,5.0009766,1.0976562,5.6416016,0.4194336c0.6401367-0.6787109,1.2768555-2.8320312,1.6538086-4.5512695
		l3.2587891-14.8466797C119.4280853,534.9287109,119.7752533,534.8413086,129.9334564,537.0708008z"/>
	<path class="st0" d="M63.7176361,448.8896484c10.6323242,3.5205078,11.4931641,3.9741211,10.9399414,5.6450195
		l-2.1625977,6.5307617c-0.7543945,2.2783203-1.659668,5.012207-1.6074219,5.8725586
		c0.6108398,1.71875,3.293457,2.2700195,5.2675781,2.9238281l77.6137695,25.699707
		c1.3671875,0.4526367,1.2172852,1.4145508-2.5043945,12.6538086c-3.269043,9.8725586-3.5708008,10.7841797-5.0898438,10.28125
		l-77.6137695-25.699707c-1.9741211-0.6538086-4.4555664-1.8129883-5.9716797-0.7978516
		c-0.5551758,0.6586914-1.4604492,3.3925781-2.1645508,5.519043l-1.8608398,5.6201172
		c-0.7543945,2.2783203-2.2724609,2.28125-11.6889648-0.8369141c-9.5688477-3.168457-10.3798828-3.7739258-9.7763672-5.5966797
		l16.2446289-49.059082C53.94664,445.8227539,55.0604095,446.0229492,63.7176361,448.8896484z"/>
	<path class="st0" d="M80.0814056,413.4140625c5.5922852,2.3852539,8.6831055,3.7036133,12.8081055,7.8984375
		c3.5146484,3.5864258,14.2490234,15.1230469,9.7856445,21.9165039c-2.4936523,3.8071289-11.9248047-7.5214844-14.0288086-9.1147461
		c-2.3349609-1.8657227-3.7788086,1.519043-5.3110352,2.2573242c-2.4980469,1.3696289-6.4692383,0.8935547-8.8242188-0.1113281
		c-7.5058594-3.2011719-12.6845703-9.4111328-10.0478516-15.5922852
		C67.7274017,413.0151367,73.9002533,410.7773438,80.0814056,413.4140625z"/>
	<path class="st0" d="M177.4061127,385.5854492c14.5834961,7.6757812,18.0039062,22.1328125,10.1787109,36.9995117
		c-7.3779297,14.0170898-21.8203125,20.1572266-36.2617188,12.5556641l-7.9291992-4.1733398
		c-0.9907227-0.5214844-0.1713867-2.0791016,4.0019531-10.0078125s6.0439453-11.8261719,6.8935547-11.3789062l3.9643555,2.0864258
		c7.0795898,3.7260742,9.4941406,4.6352539,11.2080078,1.3789062c1.5649414-2.9731445-1.5351562-5.328125-5.074707-7.1914062
		c-13.309082-7.0053711-22.7661133,0.3125-34.6518555,4.0009766c-13.1826172,4.0908203-18.7641602,4.0458984-32.4980469-3.1831055
		c-13.1679688-6.9306641-16.0664062-22.378418-9.1352539-35.5463867
		c7.0795898-13.4506836,21.0224609-19.6723633,34.4731445-12.5927734l7.3623047,3.8754883
		c0.8496094,0.4467773-0.5512695,2.421875-3.9794922,8.9345703c-4.2475586,8.0703125-6.2597656,11.8930664-6.9677734,11.5205078
		l-6.371582-3.3535156c-3.2563477-1.7138672-5.8496094-0.9091797-6.8183594,0.9316406
		c-0.96875,1.840332-0.1640625,4.4335938,2.9506836,6.0732422c9.4863281,4.9931641,10.7084961,4.7324219,25.4335938-1.2587891
		C145.2283783,380.7631836,157.5843353,375.1523438,177.4061127,385.5854492z"/>
	<path class="st0" d="M231.3211517,308.8525391c13.1704102,9.90625,15.0073242,23.7006836,4.9091797,37.1269531
		c-9.7138672,12.9145508-25.1425781,16.1254883-37.8012695,6.6040039l-47.5673828-35.7773438
		c-12.6586914-9.5214844-13.8535156-25.2353516-4.1396484-38.1499023
		c10.0986328-13.4262695,23.8613281-15.4873047,37.0322266-5.5810547l8.1835938,6.1552734
		c1.1503906,0.8652344,1.5976562,1.6020508-5.5195312,11.0644531c-4.4238281,5.8818359-5.9638672,8.7275391-7.6264648,7.4775391
		l-7.4160156-5.578125c-0.7675781-0.5771484-3.9008789-2.5336914-6.112793,0.4072266
		c-2.8852539,3.8364258,1.6875,6.2744141,5.2675781,8.9672852l37.0820312,27.8911133
		c3.5805664,2.6928711,7.6723633,5.7705078,10.0766602,2.5742188c2.3081055-3.0688477-0.6645508-5.5053711-1.3037109-5.9858398
		l-5.7543945-4.328125c-2.4291992-1.8271484-1.5966797-2.4023438,5.1357422-11.3530273
		c5.6743164-7.5444336,6.7314453-8.1508789,10.0556641-5.6503906L231.3211517,308.8525391z"/>
	<path class="st0" d="M293.2332458,277.1523438c1.8637695,1.7548828,1.0893555,2.3442383-6.5883789,10.4995117
		c-7.8969727,8.3876953-7.9995117,8.7304688-10.4462891,6.4272461l-23.9990082-22.5942383
		c-3.262207-3.0708008-6.5512695-7.046875-9.7319336-3.6679688c-2.5229492,2.6791992-2.8588867,2.8027344-1.3442383,4.2285156
		l29.3583832,27.6391602c2.5629883,2.4130859,1.246582,3.8110352-6.3212891,11.8496094
		c-6.4711914,6.8735352-7.4511719,8.1484375-11.062973,4.7485352l-74.5605469-70.1953125
		c-3.4951172-3.2905273-3.3852539-3.4072266-0.2045898-6.7856445L193.797226,222.875
		c11.5166016-12.2324219,26.3007812-13.6972656,38.300293-2.3999023l9.3203125,8.7744141
		c10.4848633,9.8710938,3.0673828,19.1503906,3.6499023,19.6987305c0.4663086,0.4384766,8.3222656-9.3066406,18.3412933,0.1259766
		L293.2332458,277.1523438z M225.1985931,246.9438477l-4.7763672-4.4970703
		c-3.262207-3.0708008-6.5517578-7.0463867-9.7324219-3.6679688c-1.9741211,2.097168-2.4194336,2.3369141-0.9052734,3.7626953
		l12.8154297,12.0649414c1.5141602,1.4257812,1.8364258,0.8500977,3.7011719-1.1303711
		C228.7142181,250.9130859,226.4798431,248.1503906,225.1985931,246.9438477z"/>
	<path class="st0" d="M329.228363,233.8383789c7.5136719,8.7319336,7.4970703,8.9575195,6.1625977,10.1054688l-28.5,24.5234375
		c-1.9404297,1.6699219-3.793457,3.6865234-5.2685547,3.6889648c-1.7006836-0.0136719-3.0234375-2.0415039-4.2753906-3.4970703
		l-65.9526215-76.6469727c-1.3564453-1.5766602-1.3393555-1.8022461-1.4467773-3.3984375
		c-0.1069336-1.5966797,0.7416992-2.3271484,1.9545898-3.3706055l30.1982269-25.984375
		c1.4550781-1.2519531,1.7680664-0.8881836,8.1337891,6.5097656c7.5136719,8.7319336,7.9311523,9.2167969,6.3544922,10.5732422
		l-12.1279297,10.4355469c-0.9702148,0.8349609-2.3212891,2.2084961-2.2675781,3.0068359
		c0.1240234,1.3706055,0.0200195,1.2495117,1.3764648,2.8256836l7.6176758,8.8535156
		c0.9394531,1.0913086,1.8447266,2.6342773,3.440918,2.5268555c1.3710938-0.1240234,2.1157227-0.9755859,3.0859375-1.8105469
		l5.9423828-5.1132812c1.4550781-1.2524414,1.7514648-0.6630859,8.7431641,7.4624023
		c6.6787109,7.7617188,7.3388672,8.0380859,5.762207,9.3950195l-5.4575195,4.6958008
		c-1.2128906,1.043457-2.4423828,2.3129883-2.71875,2.9726562c-0.465332,1.6669922,0.8208008,2.6708984,2.1772461,4.2475586
		l8.6616211,10.065918c1.3564453,1.5766602,3.3393555,3.8808594,4.2587891,3.7231445
		c0.9194336-0.1582031,2.7216797-1.4975586,4.0556641-2.6455078l11.5209961-9.9135742
		C322.1155701,225.8173828,322.4456482,225.9555664,329.228363,233.8383789z"/>
	<path class="st0" d="M386.8768005,205.421875c1.2685547,1.2612305-5.9116211,6.0698242-9.4555664,8.5395508
		c-3.8071289,2.652832-7.9560547,5.934082-9.4990234,4.2792969c-6.1728516-6.6196289-8.8540039-9.6269531-14.9350586-16.1152344
		c-1.0463867-1.2211914-2.0444336-0.1352539-4.1450195,1.3286133c-2.4941406,1.737793-3.9897461,2.3901367-3.206543,3.7944336
		c4.3354492,7.8999023,6.1367188,11.324707,10.7861328,19.3959961c0.875,1.5356445-3.8110352,4.605957-8.0117188,7.5332031
		c-1.96875,1.3720703-9.5825195,6.6777344-10.2749023,5.4047852
		c-18.4135742-38.4580078-29.4018555-61.2231445-48.0146484-98.5673828
		c-1.0180664-2.0205078,5.7163086-6.9086914,8.6044922-8.9208984c3.2817383-2.2871094,9.2802734-6.2724533,11.2294922-4.3149338
		C339.0169373,157.4511719,356.7400818,175.328125,386.8768005,205.421875z M342.0057068,188.3261719
		c-5.8823242-7.6020508-9.0205078-11.265625-16.9033203-21.1787109c-0.4575195-0.65625-4.3276367-5.3701172-5.246582-4.7299805
		c-0.7875977,0.5488281,2.84375,6.5996094,3.2094727,7.1245117c6.0615234,9.8173828,8.2807617,14.121582,13.4667969,22.4033203
		c0.7319336,1.050293,0.9946289,0.8671875,3.2260742-0.6875
		C341.5960388,189.9770508,342.9202576,189.6391602,342.0057068,188.3261719z"/>
	<path class="st0" d="M380.7220154,94.0878983c5.5410156,9.7338867,5.8769531,10.6469727,4.3476562,11.5180664l-5.9794922,3.4038086
		c-2.0859375,1.1875-4.5888672,2.6123047-5.1254883,3.2861328c-0.6972656,1.6860352,0.9262695,3.8916016,1.9555664,5.6992188
		l40.4521484,71.0561447c0.7124023,1.2514648-0.0429688,1.8657227-10.3330078,7.7236328
		c-9.0380859,5.1455078-9.8725586,5.6206055-10.6640625,4.2299805l-40.4521484-71.0561523
		c-1.0292969-1.8076172-2.0966797-4.3300705-3.9023438-4.5908127c-0.8535156,0.1176758-3.3564453,1.5424805-5.3032227,2.6508713
		l-5.1450195,2.9291992c-2.0859375,1.1875-3.215332,0.1733398-8.1235352-8.4477463
		c-4.9873047-8.7607422-5.184082-9.753418-3.515625-10.703125l44.9140625-25.5698242
		C375.516449,85.2675858,376.2093201,86.1616287,380.7220154,94.0878983z"/>
	<path class="st0" d="M475.5213318,150.0351562c4.6645508,10.5336914,4.5830078,10.7451172,2.9741211,11.4575195
		l-34.3808594,15.2255859c-2.3408203,1.0366211-4.6987305,2.4306641-6.1113281,2.0063477
		c-1.6240234-0.5058594-2.3032227-2.8300781-3.0805664-4.5854492l-40.9467773-92.4623947
		c-0.8422852-1.9018555-0.7607422-2.1132812-0.4008789-3.6723633c0.359375-1.559082,1.3833008-2.0126953,2.8466797-2.6606445
		l36.4287109-16.132328c1.7558594-0.7773438,1.9501953-0.3383789,5.9023438,8.5859413
		c4.6645508,10.5336914,4.9238281,11.1186523,3.0219727,11.9609375l-14.6303711,6.4790039
		c-1.1704102,0.5185547-2.8613281,1.4418945-3.0410156,2.2216797c-0.277832,1.3481445-0.3427734,1.2016602,0.4995117,3.1035156
		l4.7294922,10.6801758c0.5834961,1.3168945,1.003418,3.0556641,2.5625,3.4150391
		c1.3481445,0.277832,2.3076172-0.3217773,3.4780273-0.8398438l7.168457-3.1748047
		c1.7558594-0.7773438,1.8686523-0.1274414,6.2094727,9.6748047c4.1464844,9.3632812,4.6982422,9.8188477,2.7963867,10.6611328
		l-6.5834961,2.9155273c-1.4633789,0.6479492-3.0078125,1.5068359-3.4633789,2.0585938
		c-0.9277344,1.4609299,0.0126953,2.794426,0.8549805,4.6962814l5.3774414,12.1430664
		c0.8422852,1.9018555,2.0732422,4.6816406,2.9990234,4.7963867s3.0385742-0.6459961,4.6479492-1.3583984l13.8989258-6.1547852
		C471.0340271,140.2978516,471.309906,140.5258789,475.5213318,150.0351562z"/>
	<path class="st0" d="M559.4725342,109.3237381c4.2749023,15.9160156-4.0097656,28.247551-20.2353516,32.6054611
		c-15.2978516,4.1088867-29.6152649-2.3173828-33.8486633-18.0790939l-2.3242188-8.6533203
		c-0.2905273-1.081543,1.409668-1.5380859,10.0630188-3.8623047c8.6533203-2.3242188,12.7841797-3.5996094,13.0332031-2.6723633
		l1.1621094,4.3266602c2.0751953,7.7265625,3.0483398,10.1157227,6.6020508,9.1611328
		c3.2451172-0.871582,2.8671875-4.7460938,1.8295898-8.609375c-3.9013672-14.5253906-15.6958008-16.4936523-26.4775696-22.7094727
		c-11.9575195-6.8945312-15.7167969-11.0205078-19.7426758-26.0097656
		c-3.8598633-14.3710976,5.5068359-26.9926796,19.8779297-30.8525429
		c14.6802063-3.9428711,28.7182922,2.0615234,32.6611633,16.7412109l2.1582031,8.0351562
		c0.2490234,0.9272461-2.1518555,1.2407227-9.2602539,3.1499023c-8.8081055,2.3657265-12.9799805,3.4863319-13.1875,2.713871
		l-1.8676758-6.9536171c-0.9545898-3.5541992-3.3071289-4.9106445-5.315918-4.3710938s-3.3652649,2.8920898-2.4521484,6.2915039
		c2.7807617,10.3535194,3.8027344,11.073246,18.2026367,17.8085976
		C541.1507568,82.4355545,553.6619873,87.689949,559.4725342,109.3237381z"/>
	<path class="st0" d="M621.7664795,99.2251053c2.5366211,16.2836914-7.027832,27.6518555-23.6279297,30.2372971
		c-15.9677734,2.487793-29.2675781-5.966301-31.7055664-21.6176682l-9.1616211-58.8120155
		c-2.4379883-15.6513672,7.6601562-27.75,23.6279297-30.2373047c16.6000977-2.5859375,29.1689453,5.3339844,31.7055664,21.6176758
		L621.7664795,99.2251053z M597.0423584,96.4370193c-2.940918-17.8398438-4.3588867-27.9829102-7.1420898-45.8476601
		c-0.6894531-4.4267578-0.8452148-9.5844727-5.4301758-8.8701172c-4.7426758,0.7387695-3.1640625,5.6748047-2.4746094,10.1015625
		l7.1420898,45.8476601c0.6894531,4.4267578,0.6870117,9.6088867,5.4301758,8.8701172
		C599.1522217,105.8247147,597.7318115,100.8637772,597.0423584,96.4370193z"/>
	<path class="st0" d="M704.0501709,119.321785c0.0712891,2.559082,0.875,2.6967773-11.4404297,3.0395508
		c-11.5166016,0.3208008-11.5205078,0.1611328-11.5830078-2.078125l-1.5595703-55.9799805
		c-0.0751953-2.7192421-2.6572266-3.4472694-2.9189453-1.3593788c-1.3408203,9.3212929-3.1220703,20.0952187-4.1748047,22.5258827
		c-0.7504883,1.78125-2.0166016,2.296875-2.8164062,2.3193359l-3.8388672,0.1069336
		c-0.6396484,0.0175781-2.0922852-0.421875-2.9370117-1.9990234c-1.1860352-2.3681641-3.4038086-13.0307617-5.2573242-22.1030312
		c-0.3735352-1.9101562-3.71875-1.3369141-3.6474609,1.2221718l1.550293,55.6601562
		c0.0712891,2.559082-0.0839844,2.7231445-12.3994141,3.0664062c-11.5161133,0.3208008-10.2412109,0.125-10.3032227-2.1137695
		l-2.9677734-106.5219727c-0.0800781-2.8789062,0.7197266-2.9013672,10.15625-3.1640625
		c10.2363281-0.2851562,11.8535156,0.3100586,12.5600586,2.6914062c1.9331055,6.1884766,4.3686523,13.1635742,6.3061523,19.512207
		c3.1728516,10.4760742,6.3061523,19.5126953,7.7456055,19.4726562c1.2792969-0.0356445,3.5976562-8.7436523,6.3295898-19.8647461
		c1.5810547-6.4462891,3.6201172-13.7060547,5.2050781-19.9931641c0.5732422-2.4169922,2.3193359-2.9458008,11.4365234-3.199707
		c10.2363281-0.2851562,11.5205078-0.1606445,11.6005859,2.7182617L704.0501709,119.321785z"/>
	<path class="st0" d="M761.4456787,115.8501053c-1.0546875,11.472168-1.2285156,11.6166992-2.9814453,11.4555664
		l-37.4433594-3.4423828c-2.5488281-0.234375-5.2871094-0.1645508-6.3144531-1.2231445
		c-1.171875-1.2324219-0.6337891-3.5932617-0.4580078-5.5053711l9.2578125-100.6977539
		c0.1904297-2.0712891,0.3642578-2.2163086,1.4375-3.402832c1.0732422-1.1870117,2.1884766-1.0844727,3.7822266-0.9379883
		l39.6738281,3.6474609c1.9121094,0.1757812,1.8681641,0.6538086,0.9746094,10.3730469
		c-1.0546875,11.472168-1.1132812,12.109375-3.1845703,11.9189453l-15.9335938-1.4648438
		c-1.2744141-0.1171875-3.2011719-0.1337891-3.7382812,0.4599609c-0.8984375,1.0419922-0.8837891,0.8823242-1.0742188,2.9541016
		l-1.0693359,11.6308594c-0.1318359,1.434082-0.6123047,3.1577148,0.5751953,4.2304688
		c1.0419922,0.8994141,2.171875,0.8427734,3.4462891,0.9599609l7.8076172,0.7177734
		c1.9121094,0.1757812,1.6933594,0.7983398,0.7119141,11.4736366c-0.9375,10.1972656-0.6767578,10.8637695-2.7480469,10.6733398
		l-7.1699219-0.6591797c-1.59375-0.1464844-3.3613281-0.1484375-4.0273438,0.1118164
		c-1.5224609,0.8242188-1.3496094,2.4467773-1.5400391,4.5180664l-1.2158203,13.2246094
		c-0.1904297,2.0712891-0.46875,5.0986328,0.2832031,5.6499023c0.7529297,0.5512695,2.96875,0.9155273,4.7216797,1.0766602
		l15.1367188,1.3916016C762.2679443,105.1601639,762.3978271,105.49366,761.4456787,115.8501053z"/>
	<path class="st0" d="M840.7689209,39.2583046c-2.1816406,10.9858398-2.5253906,11.8959961-4.2519531,11.5532227
		l-6.7480469-1.3398438c-2.3544922-0.4672852-5.1787109-1.027832-6.0263672-0.8701172
		c-1.6298828,0.8183594-1.8457031,3.5483398-2.2509766,5.5888672l-15.921875,80.1943359
		c-0.2802734,1.4125977-1.2529297,1.3823242-12.8662109-0.9233398c-10.2011719-2.0249023-11.1425781-2.2119141-10.8310547-3.78125
		l15.921875-80.1948242c0.4052734-2.0400391,1.2480469-4.6459961,0.0537109-6.0249023
		c-0.7216797-0.4697266-3.546875-1.0302734-5.7441406-1.4667969l-5.8066406-1.152832
		c-2.3535156-0.4672852-2.5439453-1.9731445-0.6123047-11.703125c1.9628906-9.887207,2.4638672-10.7661133,4.3466797-10.3925781
		l50.6904297,10.0644531C842.605835,29.1831093,842.5443115,30.3129921,840.7689209,39.2583046z"/>
	<path class="st0" d="M881.8187256,154.390625c-1.0126953,3.2041016-1.0126953,3.2041016-12.3027344-0.3618164
		c-11.4433594-3.6137695-11.4990234-3.9672852-10.5839844-6.8662109l12.3359375-39.0585861
		c0.5791016-1.8305664,0.4746094-2.0317383-1.2041016-2.5615234l-4.7294922-1.4941406
		c-0.9160156-0.2890625-1.2685547-0.2329102-1.8955078,1.7509766l-12.4804688,39.5161057
		c-0.7705078,2.440918-0.8193359,2.59375-12.5673828-1.1166992c-10.9853516-3.4697266-10.9365234-3.6220703-10.2617188-5.7583008
		l32.0917969-101.6132812c0.8681641-2.7460938,1.0205078-2.6977539,11.8535156,0.7231445
		c11.9003906,3.7587891,11.8515625,3.9111328,10.984375,6.6577148L871.880249,79.6049881
		c-0.8193359,2.59375-0.5625,2.8422852,1.2685547,3.4208984l3.9667969,1.2529297
		c1.0673828,0.3369141,1.5253906,0.4814453,2.2480469-1.8071289l11.5166016-36.4648476
		c0.7236328-2.2885742,1.1806641-2.144043,12.1660156,1.3256836c11.2900391,3.565918,11.4433594,3.6137695,10.671875,6.0551758
		L881.8187256,154.390625z"/>
	<path class="st0" d="M913.5062256,168.5556641c-0.9853516,2.3623047-1.1953125,2.4482422-12.5644531-2.2973633
		c-10.6318359-4.4370117-10.5703125-4.5849609-9.7070312-6.6518555l41.0458984-98.3413086
		c1.109375-2.6577148,1.2568359-2.5961914,11.7402344,1.7797852c11.5175781,4.8071327,11.4560547,4.9545937,10.3466797,7.6123085
		L913.5062256,168.5556641z"/>
	<path class="st0" d="M977.3050537,201.0449219c-1.2060547,2.2583008-0.8574219,2.6254883-11.7255859-3.1762695
		c-5.2226562-2.7880859-6.6435547-3.1835938-6.2089844-6.0351562c2.6884766-17.6083984,4.2626953-22.9345703,8.5439453-43.8642578
		c0.5751953-2.7758789,1.4804688-7.1899414,0.3505859-7.7924805c-1.2695312-0.6782227-3.2480469,3.7070312-4.7548828,6.5297852
		l-19.515625,36.5561523c-1.2050781,2.2583008-1.421875,2.3242188-12.2900391-3.4775391
		c-10.1621094-5.425293-9.5224609-5.2651367-8.4667969-7.2407227l50.1816406-94.0019455
		c1.3554688-2.5405273,0.9326172-2.7666016,10.9541016,2.5830078c8.0449219,4.2949219,8.5341797,4.7373047,7.8837891,7.6547852
		c-1.3867188,6.3334961-5.8271484,27.902832-8.2988281,42.72509c-0.3300781,1.6376953-1.046875,4.3383789-0.0585938,4.8657227
		c1.2705078,0.6782227,3.0878906-3.0668945,4.2177734-5.184082l18.6113281-34.8622971
		c1.3564453-2.5405273,1.4970703-2.465332,11.5185547,2.8842773c11.0097656,5.8769531,10.3691406,5.7167969,9.0126953,8.2573242
		L977.3050537,201.0449219z"/>
	<path class="st0" d="M1029.7484131,237.0053711c-0.3652344,0.5253906-1.7763672,2.2724609-2.9580078,1.4501953
		l-2.6269531-1.8276367c-1.7070312-1.1879883,0.4179688-9.8452148-0.3701172-10.3935547
		c-1.3134766-0.9135742-7.1162109,5.1845703-18.6728516-2.8574219
		c-13.2646484-9.2299805-17.0429688-24.5288086-7.9960938-37.5307617l33.9951172-48.8554688
		c9.046875-13.0019455,24.7060547-14.7763596,37.9707031-5.5463867
		c13.7890625,9.5957031,17.4082031,24.0039062,7.9960938,37.5307617l-5.8486328,8.4052734
		c-0.8232422,1.1821289-2.5927734,0.9248047-12.3115234-5.8374023c-6.0419922-4.2036133-8.9423828-5.6376953-7.7539062-7.3447266
		l5.2998047-7.6171875c0.5488281-0.7880859,2.3876953-3.9916992-0.6328125-6.0932617
		c-3.9404297-2.7416992-6.2080078,1.9179688-8.7666016,5.5952148l-26.5019531,38.0864258
		c-2.5585938,3.6772461-6.1396484,7.4228516-2.1992188,10.1645508c3.1513672,2.1933594,5.4765625-0.8676758,5.9335938-1.5239258
		l8.2246094-11.8203125c1.2792969-1.8383789,0.359375-2.4780273-0.5595703-3.1176758
		c-1.7070312-1.1879883-1.8271484-1.8564453-1.1875-2.7758789l5.3916016-7.7485352
		c1.7363281-2.4951172,3.6552734-0.7705078,12.8486328,5.6264648c9.8496094,6.8540039,11.796875,9.378418,9.6943359,12.3989258
		L1029.7484131,237.0053711z"/>
	<path class="st0" d="M1097.5238037,300.4790039c-0.9941406,1.4868164-7.0898438-4.6386719-10.1933594-7.644043
		c-3.3330078-3.2285156-7.3496094-6.671875-6.0205078-8.503418c5.3134766-7.3276367,7.7519531-10.5351562,12.9541016-17.7475586
		c0.9990234-1.2607422-0.2587891-2.0327148-2.0976562-3.8134766c-2.1835938-2.1152344-3.1103516-3.4580078-4.3388672-2.4199219
		c-6.9228516,5.769043-9.9394531,8.1938477-16.9707031,14.3037109c-1.3388672,1.1533203-5.2509766-2.8579102-8.9287109-6.4199219
		c-1.7246094-1.6694336-8.3916016-8.1254883-7.2744141-9.0488281
		c34.2177734-25.4438477,54.4560547-40.5922852,87.5429688-66.0180664
		c1.7880859-1.3867188,7.8769531,4.2866211,10.4052734,6.7353516c2.8740234,2.7827148,7.9345703,7.9067383,6.3876953,10.1948242
		C1135.4359131,244.3100586,1121.2855225,265.1318359,1097.5238037,300.4790039z M1105.7044678,253.1611328
		c6.3339844-7.230957,9.328125-11.0131836,17.546875-20.6503906c0.5566406-0.574707,4.4423828-5.2763672,3.6376953-6.0556641
		c-0.6904297-0.6679688-5.9326172,4.0556641-6.3779297,4.515625c-8.4746094,7.8305664-12.2734375,10.8339844-19.4082031,17.5112305
		c-0.890625,0.9199219-0.6611328,1.1425781,1.2929688,3.034668
		C1104.005249,253.0751953,1104.5911865,254.3105469,1105.7044678,253.1611328z"/>
	<path class="st0" d="M1226.0726318,285.5019531c-20.7441406,14.3178711-65.4072266,45.1401367-89.5712891,61.8476562
		c-1.7099609,1.1948242-4.8105469-3.0913086-7.4482422-6.3081055c-1.3183594-1.6083984-6.2666016-7.8969727-5.2324219-9.1586914
		c4.9697266-6.5566406,9.0625-11.1538086,13.6162109-16.9560547c0.3935547-0.5292969,1.2597656-1.2397461,0.6513672-1.9819336
		c-0.5078125-0.6186523-1.3730469,0.0913086-1.8457031,0.2719727c-6.4814453,3.4511719-12.8613281,7.0263672-19.0947266,10.2744141
		c-1.9121094,0.9477539-6.7597656-5.2167969-9.3964844-8.434082c-1.3193359-1.6083984-6.5371094-7.4682617-5.0302734-8.9106445
		c20.3574219-19.5859375,49.0361328-47.4428711,78.0869141-75.6044922c0.8886719-0.9350586,6.1513672,4.4746094,8.1796875,6.9492188
		c3.0439453,3.7119141,7.2822266,9.1337891,6.0449219,10.1484375
		c-22.203125,19.8579102-34.6757812,32.1518555-54.7529297,50.0600586
		c-0.3710938,0.3046875-1.1357422,1.1381836-0.6289062,1.7568359c0.6083984,0.7426758,1.5761719,0.15625,2.0712891-0.2495117
		c12.7119141-8.9736328,20.2158203-14.7114258,31.3632812-22.8164062c1.2158203-0.7890625,2.9052734,0.5151367,4.7314453,2.7421875
		c2.0283203,2.4746094,3.5058594,4.7807617,2.3701172,5.9189453c-11.0224609,10.277832-17.5800781,15.6542969-28.9169922,26.8105469
		c-0.3710938,0.3041992-1.1357422,1.1381836-0.6289062,1.7568359c0.6083984,0.7421875,1.5761719,0.15625,2.0712891-0.2495117
		c22.5097656-17.2128906,41.5097656-31.1347656,59.6884766-44.796875c1.2373047-1.0141602,5.4980469,4.1826172,7.8310547,7.0283203
		C1222.9710693,278.9418945,1227.7825928,284.3071289,1226.0726318,285.5019531z"/>
	<path class="st0" d="M1179.380249,394.3432617c-9.6777344,6.25-9.8984375,6.2021484-10.8535156,4.7236328l-20.3994141-31.5874023
		c-1.3896484-2.1503906-3.1337891-4.262207-2.9345703-5.7236328c0.2460938-1.6831055,2.4355469-2.7163086,4.0488281-3.7578125
		l84.9501953-54.8623047c1.7470703-1.128418,1.96875-1.0810547,3.5644531-0.96875
		c1.5966797,0.1118164,2.2041016,1.0527344,3.0722656,2.3969727l21.6152344,33.4692383
		c1.0410156,1.612793,0.6376953,1.8735352-7.5615234,7.168457c-9.6777344,6.25-10.2148438,6.5976562-11.34375,4.8500977
		l-8.6806641-13.4414062c-0.6943359-1.0751953-1.8710938-2.6015625-2.6689453-2.6577148
		c-1.375-0.0644531-1.2402344-0.1508789-2.9873047,0.9775391l-9.8125,6.3369141
		c-1.2099609,0.78125-2.8623047,1.4672852-2.9736328,3.0634766c-0.0644531,1.375,0.6767578,2.2290039,1.3720703,3.3041992
		l4.2529297,6.5864258c1.0419922,1.612793,0.4169922,1.8256836-8.5878906,7.6416016
		c-8.6035156,5.5556641-8.9667969,6.171875-10.0957031,4.4243164l-3.90625-6.0483398
		c-0.8681641-1.3442383-1.9570312-2.7358398-2.5732422-3.1000977c-1.5878906-0.6889648-2.7587891,0.4482422-4.5058594,1.5766602
		l-11.15625,7.2050781c-1.7470703,1.128418-4.3017578,2.777832-4.2705078,3.7099609
		c0.0302734,0.9326172,1.1113281,2.9013672,2.0664062,4.3798828l8.2470703,12.7695312
		C1188.2991943,388.3925781,1188.1175537,388.7006836,1179.380249,394.3432617z"/>
	<path class="st0" d="M1220.6419678,442.1328125c-14.6728516,7.5043945-28.4628906,1.9770508-36.1132812-12.980957
		c-7.2128906-14.1030273-3.9189453-29.4472656,10.6123047-36.8789062l7.9775391-4.0800781
		c0.9970703-0.5102539,1.7988281,1.0571289,5.8789062,9.034668s6.1894531,11.7509766,5.3349609,12.1879883l-3.9892578,2.0400391
		c-7.1220703,3.6430664-9.2558594,5.09375-7.5800781,8.3701172c1.5302734,2.9916992,5.2402344,1.8129883,8.8017578-0.0087891
		c13.390625-6.8486328,12.8525391-18.7944336,16.6796875-30.6367188
		c4.2460938-13.1342773,7.4960938-17.6723633,21.3144531-24.7397461
		c13.2480469-6.7763672,27.5488281-0.2514648,34.3242188,12.996582c6.921875,13.5336914,3.9814453,28.5166016-9.5517578,35.4384766
		l-7.4072266,3.7885742c-0.8554688,0.4370117-1.6630859-1.8452148-5.0146484-8.3984375
		c-4.1533203-8.1201172-6.1201172-11.9663086-5.4082031-12.3305664l6.4111328-3.2788086
		c3.2763672-1.6757812,4.1113281-4.2597656,3.1640625-6.1113281c-0.9472656-1.8520508-3.53125-2.6870117-6.6650391-1.0844727
		c-9.5449219,4.8818359-10.0351562,6.03125-13.6152344,21.5209961
		C1243.1116943,418.5986328,1240.5853271,431.9321289,1220.6419678,442.1328125z"/>
	<path class="st0" d="M1243.5736084,500.9599609c-15.3916016,5.8891602-28.5087891-1.0830078-34.5126953-16.7734375
		c-5.7744141-15.0922852-0.2919922-29.8662109,14.5009766-35.5268555l55.5878906-21.2685547
		c14.7939453-5.6606445,28.7373047,1.6806641,34.5117188,16.7734375
		c6.0039062,15.6899414,0.890625,29.6376953-14.5009766,35.5263672L1243.5736084,500.9599609z M1241.1234131,476.2016602
		c16.828125-6.6103516,26.4492188-10.1201172,43.3349609-16.5805664c4.1835938-1.6010742,9.1943359-2.8330078,7.5361328-7.1665039
		c-1.7148438-4.4829102-6.2109375-1.90625-10.3955078-0.3051758l-43.3339844,16.5805664
		c-4.1845703,1.6010742-9.2519531,2.6835938-7.5361328,7.1665039
		C1232.3861084,480.2299805,1236.9398193,477.8022461,1241.1234131,476.2016602z"/>
	<path class="st0" d="M1241.1439209,585.5986328c-2.4873047,0.6054688-2.4541016,1.4204102-5.3671875-10.5498047
		c-2.7246094-11.1928711-2.5693359-11.2304688-0.3935547-11.7602539l54.4101562-13.2446289
		c2.6425781-0.6435547,2.8144531-3.3198242,0.7177734-3.1391602c-9.3945312,0.640625-20.3027344,1.1547852-22.8994141,0.6342773
		c-1.8984375-0.3608398-2.6679688-1.4912109-2.8574219-2.2680664l-0.9082031-3.7314453
		c-0.1513672-0.621582-0.0253906-2.1342773,1.3398438-3.2900391c2.0673828-1.6557617,12.0283203-6.0566406,20.5107422-9.7680664
		c1.7900391-0.7651367,0.5292969-3.9160156-1.9580078-3.3105469l-54.0986328,13.1689453
		c-2.4873047,0.6054688-2.6806641,0.487793-5.5947266-11.4824219c-2.7246094-11.1928711-2.2666016-9.9868164-0.0898438-10.5170898
		l103.5341797-25.2021484c2.7978516-0.6816406,2.9873047,0.0957031,5.2197266,9.2675781
		c2.421875,9.9492188,2.1787109,11.6552734-0.0019531,12.8447266c-5.6464844,3.1860352-11.9570312,7.0273438-17.7587891,10.2509766
		c-9.5791016,5.2958984-17.7587891,10.2509766-17.4179688,11.6503906c0.3027344,1.2436523,9.3027344,1.6875,20.7480469,2.0297852
		c6.6347656,0.1962891,14.1601562,0.6699219,20.6386719,0.9042969c2.4833984,0.0541992,3.3662109,1.6503906,5.5234375,10.5117188
		c2.421875,9.9492188,2.5683594,11.2304688-0.2294922,11.9116211L1241.1439209,585.5986328z"/>
	<path class="st0" d="M1256.6175537,641.0209961c-11.4375,1.3833008-11.6152344,1.2436523-11.8261719-0.5039062
		l-4.5146484-37.328125c-0.3076172-2.5415039-0.9521484-5.2036133-0.1328125-6.4306641
		c0.9580078-1.4052734,3.3789062-1.3754883,5.2851562-1.6064453l100.3896484-12.1411133
		c2.0644531-0.2495117,2.2421875-0.1098633,3.6289062,0.6894531c1.3857422,0.7993164,1.5205078,1.9111328,1.7119141,3.4995117
		l4.7841797,39.5522461c0.2304688,1.90625-0.2460938,1.9638672-9.9355469,3.1357422
		c-11.4365234,1.3833008-12.0722656,1.4599609-12.3222656-0.6049805l-1.9208984-15.8842773
		c-0.1533203-1.2709961-0.5429688-3.1577148-1.2363281-3.5576172c-1.2080078-0.659668-1.0488281-0.6787109-3.1142578-0.4291992
		l-11.5947266,1.4023438c-1.4296875,0.1728516-3.2158203,0.0664062-4.015625,1.4526367
		c-0.6591797,1.2080078-0.3662109,2.3007812-0.2119141,3.5712891l0.9414062,7.7836914
		c0.2304688,1.9057617-0.4248047,1.8237305-11.0673828,3.1108398c-10.1660156,1.2294922-10.7626953,1.6240234-11.0126953-0.440918
		l-0.8642578-7.1479492c-0.1923828-1.5883789-0.5625-3.3164062-0.9570312-3.9130859
		c-1.1259766-1.3144531-2.6757812-0.8046875-4.7402344-0.5551758l-13.1845703,1.5947266
		c-2.0644531,0.2495117-5.0830078,0.6147461-5.4628906,1.4663086c-0.3808594,0.8520508-0.2705078,3.0952148-0.0595703,4.8422852
		l1.8251953,15.090332C1267.2406006,639.5751953,1266.9417725,639.7724609,1256.6175537,641.0209961z"/>
</g>
<path id="SVGID_x5F_1_x5F_" style="fill:none;" d="M2206.1989746,1385.3657227
	c-46.7246094,0-93.550293-5.9042969-139.1772461-17.5488281c-73.4023438-18.7333984-140.9853516-51.3173828-200.8725586-96.8466797
	c-57.8007812-43.9433594-105.9643555-98.0029297-143.152832-160.6787109
	c-37.1889648-62.6757812-61.5561523-130.8554688-72.425293-202.6445312
	c-11.262207-74.3808594-7.4736328-149.3129883,11.2597656-222.7143555
	c15.8354492-62.0473633,41.7675781-120.3017578,77.0756836-173.1450195
	c34.1235352-51.0693359,76.2338867-95.9770508,125.1611328-133.4755859
	c48.4086914-37.1010742,102.1743164-65.949707,159.8037109-85.7451172
	c58.6762695-20.1547852,119.796875-30.3740234,181.6645508-30.3740234c46.7255859,0,93.5527344,5.9042969,139.1806641,17.5493164
	c73.4013672,18.7333984,140.9833984,51.3168945,200.8701172,96.8457031
	c57.8007812,43.9428711,105.9648438,98.0029297,143.1533203,160.6782227
	c37.1884766,62.6757812,61.5556641,130.8554688,72.4248047,202.6450195
	c11.2617188,74.3813477,7.4736328,149.3139648-11.2607422,222.7163086
	c-15.8349609,62.0458984-41.7666016,120.2998047-77.0751953,173.1425781
	c-34.1230469,51.0693359-76.2333984,95.9775391-125.1611328,133.4755859
	c-48.4091797,37.1005859-102.1748047,65.9501953-159.8046875,85.7451172
	C2329.1872559,1375.1459961,2268.0661621,1385.3657227,2206.1989746,1385.3657227z"/>
<text><textPath  xlink:href="#SVGID_x5F_1_x5F_" startOffset="131.6203003%">
<tspan  class="st0" style="font-family:'GarageGothic-Black'; font-size:160px;">Let’s CREATE Something Awesome</tspan></textPath>
</text>
<g>
	<g id="Face">
		
			<ellipse transform="matrix(0.7071068 -0.7071068 0.7071068 0.7071068 63.5835609 1801.0638428)" class="st1" cx="2205.8681641" cy="823.7797852" rx="461.4751282" ry="461.4760437"/>
		<g>
			<path d="M2641.439209,934.7084351c-11.8886719,46.2861328-30.0561523,88.932251-55.5944824,129.4092407
				c-24.3789062,38.6390381-54.3920898,73.0045166-89.732666,102.9631348
				c-33.5454102,28.4366455-73.0871582,52.7364502-114.5351562,70.5321045
				c-3.5197754,1.5112305-9.1643066,3.7874756-13.9208984,5.612793c-5.4375,2.0866699-10.9145508,4.0706787-16.427002,5.9504395
				c-10.8393555,3.6962891-21.8161621,6.9888916-32.9003906,9.8684082
				c-11.1320801,2.8918457-22.3723145,5.3670654-33.6899414,7.4162598
				c-11.8449707,2.1447754-20.8410645,3.4189453-32.519043,4.5959473
				c-47.0952148,4.7469482-94.2895508,2.1547852-139.668457-7.5924072
				c-47.2617188-10.1516113-91.2918701-27.0064697-132.8188477-51.1618652
				c-39.8901367-23.203125-74.7111816-51.3918457-105.9727783-85.6643066
				c-30.1571045-33.0615234-55.2509766-70.6647949-74.7348633-111.8685303
				c-9.407959-19.8953857-17.2218018-40.3552856-23.7866211-62.2952881
				c-6.5975342-22.0493164-11.5119629-44.5790405-14.7636719-67.3618164
				c-0.5074463-3.5547485-1.3406982-10.6054077-1.8525391-15.7610474
				c-0.5635986-5.6757202-1.0206299-11.3619385-1.3717041-17.0546875
				c-0.7209473-11.6896973-0.9935303-23.4069214-0.8162842-35.1174927
				c0.3586426-23.7103271,2.5053711-46.8563232,6.4359131-69.3070679
				c8.3334961-47.5993652,23.7687988-93.1477661,46.1824951-135.2537231
				c21.8659668-41.0770264,48.7562256-77.0272217,81.836792-109.4864502
				c32.4477539-31.8381958,68.3382568-57.7671814,109.0762939-78.8624878
				c39.8328857-20.6266785,82.8287354-35.1999512,127.9002686-43.2919312
				c43.6064453-7.828949,93.1416016-8.8899841,137.2160645-2.9203491
				c47.3530273,6.4136353,94.385498,20.4916382,136.5883789,40.9480591
				c41.9211426,20.3199158,79.5324707,46.2520142,112.9248047,77.8832703
				c33.3164062,31.5596619,60.3881836,66.2588806,82.9155273,106.1579895
				c22.5004883,39.8512573,38.322998,81.4696655,48.1027832,126.678833
				c4.9790039,23.0165405,7.7773438,43.4267578,9.154541,66.9059448
				c1.3798828,23.5183716,0.9387207,47.1405029-1.3078613,70.5917969
				C2651.222168,889.5401611,2647.1796875,912.0709229,2641.439209,934.7084351
				c-3.7980957,14.9767456,19.3425293,21.3657837,23.1425781,6.380127
				c12.1572266-47.9408569,17.1108398-97.817627,13.9172363-147.1951904
				c-3.0854492-47.7018433-13.265625-94.9478149-30.5249023-139.5358887
				c-17.3432617-44.805542-41.1455078-86.4883423-70.8034668-124.272583
				c-29.4362793-37.5020142-64.701416-70.2433472-103.9926758-97.2226868
				c-40.4936523-27.8049316-85.5761719-49.0583801-132.6606445-63.0158997
				c-47.630127-14.1192932-97.7077637-20.8363037-147.3779297-19.4855957
				c-47.8618164,1.3015747-95.6665039,9.8821106-140.9199219,25.5343628
				c-44.6999512,15.4607239-87.1627197,37.4281006-125.3286133,65.3851013
				c-38.7774658,28.4049683-72.9072266,62.2332458-101.6274414,100.7764587
				c-29.2189941,39.2125244-51.9570312,83.1182861-67.7043457,129.3980103
				c-16.0715332,47.2322998-24.6400146,97.2186279-25.2441406,147.1088867
				c-0.5811768,48.00177,6.3022461,96.2962646,20.2644043,142.2254639
				c13.7496338,45.2302246,34.2731934,88.559021,60.7600098,127.7212524
				c26.5979004,39.3266602,58.9135742,74.7891846,96.0076904,104.4470215
				c38.5753174,30.8421631,81.4302979,55.425293,127.5523682,73.1113281
				c46.7341309,17.9206543,96.4333496,28.2270508,146.4152832,30.7248535
				c48.1213379,2.4049072,96.7773438-2.8007812,143.3525391-15.1191406
				c45.7167969-12.0911865,89.7929688-31.1744385,129.8930664-56.2366943
				c40.1638184-25.1021729,76.7385254-56.2193604,107.6650391-92.1029053
				c31.6455078-36.7181396,57.7106934-78.0916748,76.6665039-122.7207642
				c9.5949707-22.5899658,17.5827637-45.7481689,23.6899414-69.5253906
				C2668.4262695,926.1207275,2645.2849121,919.7355347,2641.439209,934.7084351z"/>
		</g>
	</g>
	
		<ellipse id="L_Eye" transform="matrix(0.2472901 -0.9689415 0.9689415 0.2472901 1005.6818237 2534.0915527)" class="st2" cx="2133.8718262" cy="619.7532959" rx="136.8852692" ry="50"/>
	
		<ellipse id="R_Eye" transform="matrix(0.2472901 -0.9689415 0.9689415 0.2472901 1128.5142822 2816.2612305)" class="st2" cx="2376.9025879" cy="681.7788086" rx="136.8852692" ry="50"/>
	<g id="Mouth_1_">
		<g>
			<path d="M2497.8413086,921.343811c-1.9614258,7.6061401-4.2011719,15.1356201-6.7807617,22.5557861
				c-1.2746582,3.6668091-2.6257324,7.3068237-4.0529785,10.9169922c-0.3342285,0.8460083-0.6765137,1.6887817-1.015625,2.5328979
				c-0.8588867,2.1376953,0.7089844-1.6486206-0.1865234,0.4700317c-0.793457,1.8769531-1.6113281,3.7439575-2.4487305,5.6016846
				c-6.2641602,13.8951416-13.6765137,27.2711792-22.140625,39.9470215
				c-2.0996094,3.1444092-4.262207,6.2467041-6.4875488,9.3035278c-0.5229492,0.7184448-1.0512695,1.4329224-1.5788574,2.1479492
				c-0.1918945,0.2600708-1.8513184,2.4664917-0.9177246,1.2372437c0.9331055-1.2288208-0.7453613,0.9606323-0.9448242,1.215271
				c-0.684082,0.8734131-1.3688965,1.7462769-2.0612793,2.6130981c-4.7043457,5.8892212-9.6445312,11.5903931-14.8005371,17.0884399
				c-5.1557617,5.4979248-10.5280762,10.7929688-16.0959473,15.8730469c-2.7871094,2.5428467-5.6235352,5.0317383-8.5065918,7.46521
				c-1.3579102,1.1461182-2.7258301,2.2803955-4.1040039,3.4022217c-0.6894531,0.5611572-1.3813477,1.1192627-2.0756836,1.6741943
				c-0.673584,0.538208-2.3713379,1.8773193-0.8046875,0.6582031c-11.9787598,9.322998-24.7385254,17.6809082-37.9904785,25.0761719
				c-6.6835938,3.7297363-13.503418,7.2160645-20.4421387,10.4464111c-1.6391602,0.7630615-3.2844238,1.5128174-4.9362793,2.2476807
				c-0.8269043,0.3679199-1.6552734,0.7325439-2.4853516,1.0933838c0.2133789-0.0927734-3.8774414,1.6602783-2.0175781,0.8760986
				c1.5373535-0.6481934-1.0759277,0.4425049-1.4094238,0.5783691c-0.8408203,0.3424072-1.6831055,0.6811523-2.5268555,1.0163574
				c-1.9008789,0.755249-3.8088379,1.4932861-5.7241211,2.2116699c-14.6025391,5.477417-29.6013184,9.8967285-44.8381348,13.2242432
				c-7.7214355,1.6862793-15.5029297,3.0982666-23.3251953,4.2276611c-0.4619141,0.0666504-5.7890625,0.7606201-3.2324219,0.4505615
				c-2.0966797,0.2542725-4.1945801,0.4954834-6.2954102,0.7137451c-3.984375,0.4139404-7.9760742,0.7578125-11.9726562,1.0281982
				c-16.2304688,1.0979004-32.5393066,1.024292-48.7597656-0.2119141
				c-4.1237793-0.3143311-8.2416992-0.7023926-12.3513184-1.1643066c-4.4616699-0.5013428-7.1933594-0.8713379-10.2585449-1.342041
				c-8.3449707-1.2813721-16.6442871-2.8623047-24.8752441-4.7423096
				c-32.8652344-7.5067139-61.2004395-18.3192139-89.9345703-34.5168457
				c-27.9287109-15.7435303-49.96521-32.5877686-72.4005127-55.6981201
				c-5.3256836-5.4858398-10.4606934-11.1576538-15.3830566-17.0083618
				c-1.152832-1.3703003-2.2949219-2.7497559-3.4246826-4.1392212c-0.5640869-0.6938477-1.1256104-1.3899536-1.68396-2.0884399
				c0.166626,0.2084961-2.5537109-3.239563-1.3735352-1.7248535c-0.9536133-1.223938-4.2774658-5.6627808-6.0997314-8.196228
				c-8.7818604-12.2091064-16.6931152-25.0447388-23.6126709-38.3987427
				c-3.4376221-6.6343994-6.5814209-13.4013062-9.5598145-20.2525024c-1.1274414-2.5933228-0.3037109-0.7183838-0.0794678-0.1724243
				c-0.3330078-0.8105469-0.6635742-1.6220703-0.9899902-2.4353027c-0.7338867-1.8288574-1.4492188-3.6651611-2.1463623-5.5084229
				c-1.3155518-3.4787598-2.5670166-6.9815674-3.7501221-10.5076294
				c-4.7280273-14.0915527-8.3800049-28.5455933-10.8730469-43.1993408
				c-0.2935791-1.7258301-0.571167-3.4545288-0.8326416-5.1856079c-0.1308594-0.8659058-0.2575684-1.7325439-0.380249-2.5996704
				c0.0227051,0.1602783-0.5385742-4.1062622-0.2818604-2.0459595c0.213623,1.7139893-0.1153564-1.0186768-0.1578369-1.401001
				c-0.0970459-0.8717651-0.1968994-1.743103-0.2891846-2.6154175c-0.2077637-1.9641724-0.3953857-3.9304199-0.5614014-5.8984985
				c-0.6293945-7.4610596-0.9578857-14.9476929-0.9818115-22.4351807
				c-0.0240479-7.5449219,0.2596436-15.0916748,0.8554688-22.6130981c0.3001709-3.789978,0.6781006-7.5735474,1.1339111-11.3479614
				c0.107666-0.8914185,0.2216797-1.7819214,0.3360596-2.6724854c0.2922363-2.2772827-0.2788086,1.8609009,0.0561523-0.4143066
				c0.2957764-2.0085449,0.605957-4.0145874,0.9429932-6.0166626c1.2860107-7.6393433,2.9063721-15.2134399,4.8035889-22.7236938
				c1.8514404-7.3297119-2.4194336-15.1772461-9.80896-17.2020874c-7.2037354-1.9738159-15.3444824,2.4551392-17.2021484,9.80896
				c-16.0527344,63.548645-9.9277344,129.9602661,15.5395508,190.1531372
				c25.2432861,59.6635132,69.491333,110.2765503,123.2855225,145.9765015
				c57.7479248,38.3239746,127.4141846,59.0388184,196.6690674,59.3167725
				c66.3063965,0.2661133,133.1169434-18.4891357,188.4372559-55.335083
				c54.4677734-36.2780762,96.5222168-88.8492432,118.1950684-150.7376099
				c2.6723633-7.6310425,4.9892578-15.3757935,7.0078125-23.2043457c1.8879395-7.3206787-2.4445801-15.1842041-9.8088379-17.2020264
				C2507.8105469,909.5529785,2499.7351074,913.9996948,2497.8413086,921.343811L2497.8413086,921.343811z"/>
		</g>
	</g>
	
		<ellipse transform="matrix(0.9998834 -0.0152696 0.0152696 0.9998834 -11.3216028 28.9761925)" cx="1891.8703613" cy="755.8931274" rx="51.522831" ry="12.2834139"/>
	
		<ellipse transform="matrix(0.4925654 -0.8702754 0.8702754 0.4925654 479.6732178 2652.0019531)" cx="2513.9936523" cy="914.6693726" rx="12.2834139" ry="51.522831"/>
</g>
</svg>
