<?xml version="1.0" encoding="utf-8"?>
<!-- Generator: Adobe Illustrator 23.1.1, SVG Export Plug-In . SVG Version: 6.00 Build 0)  -->
<svg version="1.1" id="tomroberts101.com" xmlns="http://www.w3.org/2000/svg" xmlns:xlink="http://www.w3.org/1999/xlink" x="0px"
	 y="0px" viewBox="0 0 1024 1024" style="enable-background:new 0 0 1024 1024;" xml:space="preserve">
<style type="text/css">
	.st0{fill:#FDEB01;}
	.st1{stroke:#000000;stroke-miterlimit:10;}
</style>
<path id="SVGID_x5F_1_x5F_" style="fill:none;" d="M2528.546875,1151.265625
	c-46.7246094,0-93.550293-5.9042969-139.1772461-17.5488281c-73.4023438-18.7333984-140.9853516-51.3173828-200.8725586-96.8466797
	c-57.8007812-43.9433594-105.9643555-98.0029297-143.152832-160.6787109
	c-37.1889648-62.6757812-61.5561523-130.8554688-72.425293-202.6445312
	c-11.262207-74.3808594-7.4736328-149.3129883,11.2597656-222.7143555
	c15.8354492-62.0473633,41.7675781-120.3017578,77.0756836-173.1450195
	c34.1235352-51.0693359,76.2338867-95.9770508,125.1611328-133.4755859
	c48.4086914-37.1010666,102.1743164-65.9496994,159.8037109-85.7451172
	c58.6762695-20.1547852,119.796875-30.3740234,181.6645508-30.3740234c46.7255859,0,93.5527344,5.9042969,139.1806641,17.5493164
	c73.4013672,18.7334023,140.9833984,51.3168983,200.8701172,96.8457031
	c57.8007812,43.9428711,105.9648438,98.0029297,143.1533203,160.6782227
	c37.1884766,62.6757812,61.5556641,130.8554688,72.4248047,202.6450195
	c11.2617188,74.3813477,7.4736328,149.3139648-11.2607422,222.7163086
	c-15.8349609,62.0458984-41.7666016,120.2998047-77.0751953,173.1425781
	c-34.1230469,51.0693359-76.2333984,95.9775391-125.1611328,133.4755859
	c-48.4091797,37.1005859-102.1748047,65.9501953-159.8046875,85.7451172
	C2651.5351562,1141.0458984,2590.4140625,1151.265625,2528.546875,1151.265625z"/>
<text><textPath  xlink:href="#SVGID_x5F_1_x5F_" startOffset="131.6203003%">
<tspan  style="fill:#E43B3A; font-family:'GarageGothic-Black'; font-size:160px;">Let’s Make Something Awesome</tspan></textPath>
</text>
<g id="Face">
	
		<ellipse transform="matrix(0.7071068 -0.7071068 0.7071068 0.7071068 -211.6263275 513.0900879)" class="st0" cx="513.5413818" cy="512.0006104" rx="461.4751282" ry="461.4760437"/>
	<g>
		<path d="M949.1122437,622.9291992c-11.8885498,46.2861328-30.0559692,88.932312-55.5944214,129.4092407
			c-24.3789062,38.6390381-54.3919678,73.0045776-89.7327271,102.9631958
			c-33.5454102,28.4367065-73.0871582,52.7364502-114.5350342,70.5321045
			c-3.5197144,1.5112305-9.1642456,3.7874756-13.9208984,5.612793c-5.4375,2.0866699-10.9145508,4.0707397-16.427063,5.9505005
			c-10.8392334,3.696167-21.8161011,6.9888306-32.9003296,9.8682861
			c-11.132019,2.8919067-22.3723145,5.3671265-33.6898193,7.4163208
			c-11.8450928,2.1447754-20.8412476,3.4188843-32.519043,4.5959473
			c-47.0953979,4.7469482-94.2895813,2.1547852-139.6686707-7.5924072
			c-47.2615356-10.1515503-91.2917786-27.0064697-132.8188171-51.1618042
			c-39.8900604-23.203186-74.7111359-51.3919067-105.9727325-85.6643677
			c-30.157074-33.0615845-55.2509689-70.664856-74.7349014-111.8685303
			c-9.4078903-19.8953857-17.221817-40.3552856-23.7865982-62.2952881
			c-6.5974808-22.0493164-11.5119019-44.5790405-14.7636871-67.3618164
			c-0.50737-3.5547485-1.3406754-10.6054688-1.8525696-15.7611084c-0.5635376-5.6756592-1.0205231-11.3618774-1.3716202-17.0546265
			c-0.7209473-11.6896973-0.9935226-23.4069824-0.8163528-35.1175232
			c0.3587112-23.7102966,2.5054245-46.8562927,6.4359665-69.3070679
			c8.3334274-47.5993652,23.7687225-93.1477661,46.1824265-135.2536926
			c21.8660126-41.0770569,48.7562408-77.0272522,81.8368378-109.4864502
			c32.4477081-31.8382263,68.3382263-57.7672119,109.0762329-78.8625107
			c39.8330078-20.6266632,82.8287048-35.1999588,127.900238-43.2919235
			c43.6064758-7.8289413,93.1416626-8.8899689,137.2162476-2.9203568
			c47.3530273,6.4136581,94.385498,20.4916611,136.5881958,40.9480667
			c41.9211426,20.3199158,79.5327148,46.2519989,112.9248047,77.8832703
			c33.3165283,31.5596619,60.3883057,66.2588959,82.9157104,106.1580048
			c22.5003662,39.8512573,38.322937,81.469635,48.1027222,126.678833c4.9790039,23.01651,7.7772217,43.4267273,9.1546021,66.9059143
			c1.3796997,23.5184021,0.9385376,47.1404724-1.3079224,70.5918274
			C958.8952637,577.7609253,954.8527832,600.291687,949.1122437,622.9291992
			c-3.7979126,14.9767456,19.3425293,21.3658447,23.1427002,6.380188
			c12.1571045-47.940918,17.1108398-97.817627,13.9171753-147.1951599
			c-3.0853271-47.7019043-13.265625-94.9478455-30.5248413-139.5359497
			c-17.3433228-44.805542-41.1456299-86.4883118-70.8034668-124.2725677
			c-29.4363403-37.5020142-64.7015381-70.2433472-103.9927979-97.222702
			c-40.4935913-27.8049164-85.5761719-49.0583801-132.6605225-63.0158958
			c-47.6300659-14.1192818-97.7077026-20.8362961-147.3778992-19.485569
			c-47.861969,1.3015556-95.6665344,9.882103-140.9200439,25.5343323
			c-44.6998901,15.4607468-87.1626892,37.4281158-125.3285522,65.3851013
			c-38.77742,28.4049683-72.9072723,62.2332611-101.6274872,100.7764587
			c-29.2189713,39.2125549-51.957016,83.1183167-67.7043304,129.3980103
			c-16.0714684,47.2322998-24.6400223,97.2186584-25.244072,147.1089172
			c-0.5811844,48.00177,6.3021965,96.2962036,20.2643394,142.2254028
			c13.7496681,45.2302856,34.2731895,88.559021,60.7599983,127.7213135
			c26.5979843,39.3265991,58.9136124,74.7891846,96.0077591,104.4470215
			c38.5753479,30.8421021,81.4302979,55.425293,127.5523987,73.1113281
			c46.7339783,17.9205933,96.4333496,28.2271118,146.4153137,30.7249146
			c48.1211548,2.4047852,96.7771606-2.8009033,143.3525391-15.1192017
			c45.7167969-12.0912476,89.7927856-31.1744385,129.8930054-56.2367554
			c40.1638184-25.1020508,76.7385864-56.2192993,107.664978-92.1028442
			c31.6456909-36.7182007,57.7108154-78.0916748,76.666626-122.7207642
			c9.5948486-22.5899658,17.5827026-45.7481689,23.6898804-69.5253906
			C976.0994263,614.3414917,952.9580078,607.9563599,949.1122437,622.9291992z"/>
	</g>
</g>
<ellipse id="L_Eye" transform="matrix(0.2472901 -0.9689415 0.9689415 0.2472901 33.9464455 659.6464844)" class="st1" cx="441.5450745" cy="307.9741211" rx="136.8852692" ry="50"/>
<ellipse id="R_Eye" transform="matrix(0.2472901 -0.9689415 0.9689415 0.2472901 156.7789612 941.8162231)" class="st1" cx="684.5757446" cy="369.9996033" rx="136.8852692" ry="50"/>
<g id="Mouth_1_">
	<g>
		<path d="M805.5145264,609.5646362c-1.9613647,7.6061401-4.2012939,15.1356201-6.7808228,22.5557861
			c-1.2747192,3.6668091-2.6256714,7.3068237-4.0528564,10.9169922c-0.3344727,0.8460083-0.6767578,1.6887817-1.0158691,2.5328979
			c-0.8587646,2.1376953,0.7090454-1.6486206-0.1865234,0.4699707c-0.793396,1.8770142-1.6112061,3.7440186-2.4486694,5.6017456
			c-6.2640991,13.8951416-13.6764526,27.2711792-22.140625,39.9470215c-2.0996704,3.1444092-4.262207,6.2467041-6.4874268,9.3035278
			c-0.5230103,0.7183838-1.0512695,1.4328613-1.5788574,2.1479492c-0.1918945,0.2600708-1.8514404,2.4664307-0.9178467,1.2372437
			c0.9332275-1.2288208-0.7453003,0.9606323-0.9447632,1.215271c-0.6841431,0.8734131-1.3688354,1.7462769-2.0612793,2.6130981
			c-4.7044678,5.8892212-9.6445312,11.590332-14.8005981,17.0884399
			c-5.1558228,5.4978638-10.5280151,10.7930298-16.0959473,15.8730469
			c-2.7870483,2.5428467-5.6234741,5.0316772-8.5065308,7.4651489c-1.3579712,1.1462402-2.7258301,2.2804565-4.1040039,3.4022827
			c-0.6894531,0.5611572-1.3813477,1.1192017-2.0758057,1.6741943c-0.6734619,0.538208-2.3710938,1.8773193-0.8046265,0.6581421
			c-11.9786377,9.322998-24.7384644,17.6809082-37.9905396,25.0762329
			c-6.6835938,3.7297363-13.5033569,7.2160034-20.4421387,10.4463501c-1.6390381,0.7630615-3.2843018,1.5128784-4.9361572,2.2477417
			c-0.8269043,0.3678589-1.6553345,0.7324829-2.4852905,1.0934448c0.2133179-0.0927734-3.8775635,1.6602173-2.0177002,0.8760376
			c1.5372925-0.6481323-1.0758667,0.4425049-1.4094238,0.5783081c-0.8408203,0.3424072-1.6831055,0.6812134-2.5268555,1.0164185
			c-1.9009399,0.755249-3.8088379,1.4932861-5.7240601,2.211731c-14.6025391,5.477356-29.6013184,9.8966675-44.8381348,13.2241821
			c-7.7213745,1.6862183-15.5029297,3.0983276-23.3252563,4.2276001c-0.4619141,0.0667114-5.7890015,0.7607422-3.2324219,0.4506226
			c-2.0966187,0.2543335-4.1945801,0.4954224-6.2953491,0.7137451c-3.984314,0.4139404-7.9760132,0.7578125-11.9726562,1.0281982
			c-16.2303467,1.0978394-32.5393372,1.024292-48.7597046-0.2119141c-4.1237488-0.3143311-8.2416687-0.7024536-12.3515015-1.1643066
			c-4.4615479-0.5013428-7.1932678-0.8713379-10.2585449-1.342041c-8.3449707-1.2814331-16.6442871-2.8623047-24.8751526-4.7423096
			c-32.8651123-7.5067139-61.2003784-18.3192139-89.9346313-34.5169067
			c-27.9286499-15.7435303-49.9651184-32.5877075-72.4004517-55.697998
			c-5.3257141-5.4859619-10.4606323-11.1577148-15.3829956-17.0084229
			c-1.1528625-1.3703003-2.2950134-2.7497559-3.4246826-4.1392212c-0.5641174-0.6938477-1.1256104-1.3899536-1.684021-2.0884399
			c0.166687,0.2084961-2.5536804-3.239624-1.3735657-1.7248535c-0.9535828-1.223938-4.2774048-5.6627808-6.0996704-8.196228
			c-8.7819061-12.2091064-16.6931915-25.0447998-23.6126556-38.3987427
			c-3.4376831-6.6343994-6.5814362-13.4013062-9.5598602-20.2525024c-1.1273804-2.5933228-0.3037567-0.7183838-0.0794678-0.1724243
			c-0.3329926-0.8105469-0.6635437-1.6221313-0.9899292-2.4353638c-0.733963-1.8287964-1.4493256-3.6651001-2.1463776-5.5083618
			c-1.3155365-3.4787598-2.5670319-6.9816284-3.7501221-10.5076294
			c-4.7281036-14.0915527-8.3799896-28.5455933-10.8730621-43.1993408
			c-0.2936249-1.7258911-0.5712433-3.4545288-0.8326874-5.1856079c-0.1307831-0.8659058-0.2575378-1.7325439-0.3802338-2.5996704
			c0.0226746,0.1602783-0.5386047-4.1063232-0.2818451-2.0459595c0.2135925,1.7139282-0.1153259-1.0187378-0.1578827-1.401001
			c-0.0970154-0.8717651-0.1968231-1.7431641-0.289093-2.6154175c-0.2077637-1.9641724-0.3954773-3.9304199-0.5615082-5.8985596
			c-0.6293793-7.4609985-0.9578552-14.9476318-0.9817352-22.4351196
			c-0.0240631-7.5449219,0.2596741-15.0917053,0.8554382-22.6131287c0.3002014-3.789978,0.6781158-7.5735474,1.1339417-11.3479614
			c0.1076508-0.8913879,0.2216797-1.7819214,0.3359985-2.6724854c0.2923126-2.2772522-0.2787628,1.8609314,0.0562439-0.4143066
			c0.2957306-2.0084839,0.6058655-4.0145874,0.9428864-6.0166321c1.2860107-7.6393738,2.9064636-15.2134399,4.8036041-22.7237244
			c1.851532-7.3296814-2.4193573-15.1772461-9.80896-17.2020569c-7.2037048-1.9738464-15.3444366,2.4551392-17.2020569,9.8089905
			c-16.0528259,63.5486145-9.9277344,129.9602356,15.5395203,190.1531067
			c25.2433014,59.6635132,69.4913025,110.2764893,123.2854614,145.9765015
			c57.7480164,38.3239746,127.4142456,59.0388184,196.6690674,59.3167725
			c66.3064575,0.2661133,133.1170044-18.4891968,188.4372559-55.335083
			c54.4677124-36.2781372,96.5222168-88.8492432,118.1951294-150.7376099
			c2.6723633-7.6310425,4.9891357-15.3757935,7.0078735-23.2043457c1.8878174-7.3206787-2.4446411-15.1842041-9.80896-17.2020874
			C815.4836426,597.7737427,807.4083252,602.220459,805.5145264,609.5646362L805.5145264,609.5646362z"/>
	</g>
</g>
<ellipse transform="matrix(0.9998834 -0.0152696 0.0152696 0.9998834 -6.7581687 3.0987239)" cx="199.5435638" cy="444.1139221" rx="51.522831" ry="12.2834139"/>
<ellipse transform="matrix(0.4925654 -0.8702754 0.8702754 0.4925654 -107.7382965 1021.0038452)" cx="821.6668701" cy="602.8901978" rx="12.2834139" ry="51.522831"/>
</svg>
